<mxfile host="65bd71144e">
    <diagram id="9R0POnX61Uw_uijoBZHw" name="第 1 页">
        <mxGraphModel dx="1155" dy="564" grid="1" gridSize="10" guides="1" tooltips="1" connect="1" arrows="1" fold="1" page="1" pageScale="1" pageWidth="1169" pageHeight="827" math="0" shadow="0">
            <root>
                <mxCell id="0"/>
                <mxCell id="1" parent="0"/>
                <mxCell id="2" value="" style="rounded=0;whiteSpace=wrap;html=1;" vertex="1" parent="1">
                    <mxGeometry x="90" y="40" width="910" height="600" as="geometry"/>
                </mxCell>
                <mxCell id="5" value="" style="group" vertex="1" connectable="0" parent="1">
                    <mxGeometry x="110" y="60" width="210" height="30" as="geometry"/>
                </mxCell>
                <mxCell id="3" value="关键字：" style="text;html=1;align=left;verticalAlign=middle;whiteSpace=wrap;rounded=0;" vertex="1" parent="5">
                    <mxGeometry width="60" height="30" as="geometry"/>
                </mxCell>
                <mxCell id="4" value="请输入关键字" style="rounded=1;whiteSpace=wrap;html=1;align=left;" vertex="1" parent="5">
                    <mxGeometry x="60" y="2.5" width="150" height="25" as="geometry"/>
                </mxCell>
                <mxCell id="6" value="查询" style="rounded=1;whiteSpace=wrap;html=1;" vertex="1" parent="1">
                    <mxGeometry x="330" y="60" width="60" height="30" as="geometry"/>
                </mxCell>
                <mxCell id="7" value="重置" style="rounded=1;whiteSpace=wrap;html=1;" vertex="1" parent="1">
                    <mxGeometry x="400" y="60" width="60" height="30" as="geometry"/>
                </mxCell>
                <mxCell id="8" value="新增" style="rounded=1;whiteSpace=wrap;html=1;" vertex="1" parent="1">
                    <mxGeometry x="760" y="60" width="60" height="30" as="geometry"/>
                </mxCell>
                <mxCell id="9" value="删除" style="rounded=1;whiteSpace=wrap;html=1;" vertex="1" parent="1">
                    <mxGeometry x="830" y="60" width="60" height="30" as="geometry"/>
                </mxCell>
                <mxCell id="18" value="" style="group" vertex="1" connectable="0" parent="1">
                    <mxGeometry x="900" y="60" width="80" height="115" as="geometry"/>
                </mxCell>
                <mxCell id="17" value="" style="rounded=0;whiteSpace=wrap;html=1;" vertex="1" parent="18">
                    <mxGeometry width="80" height="115" as="geometry"/>
                </mxCell>
                <mxCell id="13" value="展开&amp;nbsp; &amp;nbsp; &amp;nbsp; ▽" style="rounded=1;whiteSpace=wrap;html=1;" vertex="1" parent="18">
                    <mxGeometry x="10" y="5" width="60" height="30" as="geometry"/>
                </mxCell>
                <mxCell id="15" value="导入" style="rounded=0;whiteSpace=wrap;html=1;" vertex="1" parent="18">
                    <mxGeometry x="10" y="45" width="60" height="30" as="geometry"/>
                </mxCell>
                <mxCell id="16" value="导出" style="rounded=0;whiteSpace=wrap;html=1;" vertex="1" parent="18">
                    <mxGeometry x="10" y="75" width="60" height="30" as="geometry"/>
                </mxCell>
                <mxCell id="83" value="" style="group" vertex="1" connectable="0" parent="1">
                    <mxGeometry x="110" y="200" width="870" height="170" as="geometry"/>
                </mxCell>
                <mxCell id="49" value="" style="childLayout=tableLayout;recursiveResize=0;shadow=0;fillColor=none;" vertex="1" parent="83">
                    <mxGeometry x="340" width="340" height="170" as="geometry"/>
                </mxCell>
                <mxCell id="50" value="" style="shape=tableRow;horizontal=0;startSize=0;swimlaneHead=0;swimlaneBody=0;top=0;left=0;bottom=0;right=0;dropTarget=0;collapsible=0;recursiveResize=0;expand=0;fontStyle=0;fillColor=none;strokeColor=inherit;" vertex="1" parent="49">
                    <mxGeometry width="340" height="43" as="geometry"/>
                </mxCell>
                <mxCell id="51" value="Value 1" style="connectable=0;recursiveResize=0;strokeColor=inherit;fillColor=none;align=center;whiteSpace=wrap;html=1;" vertex="1" parent="50">
                    <mxGeometry width="113" height="43" as="geometry">
                        <mxRectangle width="113" height="43" as="alternateBounds"/>
                    </mxGeometry>
                </mxCell>
                <mxCell id="52" value="Value 2" style="connectable=0;recursiveResize=0;strokeColor=inherit;fillColor=none;align=center;whiteSpace=wrap;html=1;" vertex="1" parent="50">
                    <mxGeometry x="113" width="114" height="43" as="geometry">
                        <mxRectangle width="114" height="43" as="alternateBounds"/>
                    </mxGeometry>
                </mxCell>
                <mxCell id="53" value="Value 3" style="connectable=0;recursiveResize=0;strokeColor=inherit;fillColor=none;align=center;whiteSpace=wrap;html=1;" vertex="1" parent="50">
                    <mxGeometry x="227" width="113" height="43" as="geometry">
                        <mxRectangle width="113" height="43" as="alternateBounds"/>
                    </mxGeometry>
                </mxCell>
                <mxCell id="54" value="" style="shape=tableRow;horizontal=0;startSize=0;swimlaneHead=0;swimlaneBody=0;top=0;left=0;bottom=0;right=0;dropTarget=0;collapsible=0;recursiveResize=0;expand=0;fontStyle=0;fillColor=none;strokeColor=inherit;" vertex="1" parent="49">
                    <mxGeometry y="43" width="340" height="42" as="geometry"/>
                </mxCell>
                <mxCell id="55" value="Value 1" style="connectable=0;recursiveResize=0;strokeColor=inherit;fillColor=none;align=center;whiteSpace=wrap;html=1;" vertex="1" parent="54">
                    <mxGeometry width="113" height="42" as="geometry">
                        <mxRectangle width="113" height="42" as="alternateBounds"/>
                    </mxGeometry>
                </mxCell>
                <mxCell id="56" value="Value 2" style="connectable=0;recursiveResize=0;strokeColor=inherit;fillColor=none;align=center;whiteSpace=wrap;html=1;" vertex="1" parent="54">
                    <mxGeometry x="113" width="114" height="42" as="geometry">
                        <mxRectangle width="114" height="42" as="alternateBounds"/>
                    </mxGeometry>
                </mxCell>
                <mxCell id="57" value="Value 3" style="connectable=0;recursiveResize=0;strokeColor=inherit;fillColor=none;align=center;whiteSpace=wrap;html=1;" vertex="1" parent="54">
                    <mxGeometry x="227" width="113" height="42" as="geometry">
                        <mxRectangle width="113" height="42" as="alternateBounds"/>
                    </mxGeometry>
                </mxCell>
                <mxCell id="58" style="shape=tableRow;horizontal=0;startSize=0;swimlaneHead=0;swimlaneBody=0;top=0;left=0;bottom=0;right=0;dropTarget=0;collapsible=0;recursiveResize=0;expand=0;fontStyle=0;fillColor=none;strokeColor=inherit;" vertex="1" parent="49">
                    <mxGeometry y="85" width="340" height="42" as="geometry"/>
                </mxCell>
                <mxCell id="59" value="Value 4" style="connectable=0;recursiveResize=0;strokeColor=inherit;fillColor=none;align=center;whiteSpace=wrap;html=1;" vertex="1" parent="58">
                    <mxGeometry width="113" height="42" as="geometry">
                        <mxRectangle width="113" height="42" as="alternateBounds"/>
                    </mxGeometry>
                </mxCell>
                <mxCell id="60" value="Value 5" style="connectable=0;recursiveResize=0;strokeColor=inherit;fillColor=none;align=center;whiteSpace=wrap;html=1;" vertex="1" parent="58">
                    <mxGeometry x="113" width="114" height="42" as="geometry">
                        <mxRectangle width="114" height="42" as="alternateBounds"/>
                    </mxGeometry>
                </mxCell>
                <mxCell id="61" value="Value 6" style="connectable=0;recursiveResize=0;strokeColor=inherit;fillColor=none;align=center;whiteSpace=wrap;html=1;" vertex="1" parent="58">
                    <mxGeometry x="227" width="113" height="42" as="geometry">
                        <mxRectangle width="113" height="42" as="alternateBounds"/>
                    </mxGeometry>
                </mxCell>
                <mxCell id="62" style="shape=tableRow;horizontal=0;startSize=0;swimlaneHead=0;swimlaneBody=0;top=0;left=0;bottom=0;right=0;dropTarget=0;collapsible=0;recursiveResize=0;expand=0;fontStyle=0;fillColor=none;strokeColor=inherit;" vertex="1" parent="49">
                    <mxGeometry y="127" width="340" height="43" as="geometry"/>
                </mxCell>
                <mxCell id="63" value="Value 7" style="connectable=0;recursiveResize=0;strokeColor=inherit;fillColor=none;align=center;whiteSpace=wrap;html=1;" vertex="1" parent="62">
                    <mxGeometry width="113" height="43" as="geometry">
                        <mxRectangle width="113" height="43" as="alternateBounds"/>
                    </mxGeometry>
                </mxCell>
                <mxCell id="64" value="Value 8" style="connectable=0;recursiveResize=0;strokeColor=inherit;fillColor=none;align=center;whiteSpace=wrap;html=1;" vertex="1" parent="62">
                    <mxGeometry x="113" width="114" height="43" as="geometry">
                        <mxRectangle width="114" height="43" as="alternateBounds"/>
                    </mxGeometry>
                </mxCell>
                <mxCell id="65" value="Value 9" style="connectable=0;recursiveResize=0;strokeColor=inherit;fillColor=none;align=center;whiteSpace=wrap;html=1;" vertex="1" parent="62">
                    <mxGeometry x="227" width="113" height="43" as="geometry">
                        <mxRectangle width="113" height="43" as="alternateBounds"/>
                    </mxGeometry>
                </mxCell>
                <mxCell id="32" value="" style="childLayout=tableLayout;recursiveResize=0;shadow=0;fillColor=none;" vertex="1" parent="83">
                    <mxGeometry width="340" height="170" as="geometry"/>
                </mxCell>
                <mxCell id="33" value="" style="shape=tableRow;horizontal=0;startSize=0;swimlaneHead=0;swimlaneBody=0;top=0;left=0;bottom=0;right=0;dropTarget=0;collapsible=0;recursiveResize=0;expand=0;fontStyle=0;fillColor=none;strokeColor=inherit;" vertex="1" parent="32">
                    <mxGeometry width="340" height="43" as="geometry"/>
                </mxCell>
                <mxCell id="34" value="Value 1" style="connectable=0;recursiveResize=0;strokeColor=inherit;fillColor=none;align=center;whiteSpace=wrap;html=1;" vertex="1" parent="33">
                    <mxGeometry width="113" height="43" as="geometry">
                        <mxRectangle width="113" height="43" as="alternateBounds"/>
                    </mxGeometry>
                </mxCell>
                <mxCell id="35" value="Value 2" style="connectable=0;recursiveResize=0;strokeColor=inherit;fillColor=none;align=center;whiteSpace=wrap;html=1;" vertex="1" parent="33">
                    <mxGeometry x="113" width="114" height="43" as="geometry">
                        <mxRectangle width="114" height="43" as="alternateBounds"/>
                    </mxGeometry>
                </mxCell>
                <mxCell id="36" value="Value 3" style="connectable=0;recursiveResize=0;strokeColor=inherit;fillColor=none;align=center;whiteSpace=wrap;html=1;" vertex="1" parent="33">
                    <mxGeometry x="227" width="113" height="43" as="geometry">
                        <mxRectangle width="113" height="43" as="alternateBounds"/>
                    </mxGeometry>
                </mxCell>
                <mxCell id="45" value="" style="shape=tableRow;horizontal=0;startSize=0;swimlaneHead=0;swimlaneBody=0;top=0;left=0;bottom=0;right=0;dropTarget=0;collapsible=0;recursiveResize=0;expand=0;fontStyle=0;fillColor=none;strokeColor=inherit;" vertex="1" parent="32">
                    <mxGeometry y="43" width="340" height="42" as="geometry"/>
                </mxCell>
                <mxCell id="46" value="Value 1" style="connectable=0;recursiveResize=0;strokeColor=inherit;fillColor=none;align=center;whiteSpace=wrap;html=1;" vertex="1" parent="45">
                    <mxGeometry width="113" height="42" as="geometry">
                        <mxRectangle width="113" height="42" as="alternateBounds"/>
                    </mxGeometry>
                </mxCell>
                <mxCell id="47" value="Value 2" style="connectable=0;recursiveResize=0;strokeColor=inherit;fillColor=none;align=center;whiteSpace=wrap;html=1;" vertex="1" parent="45">
                    <mxGeometry x="113" width="114" height="42" as="geometry">
                        <mxRectangle width="114" height="42" as="alternateBounds"/>
                    </mxGeometry>
                </mxCell>
                <mxCell id="48" value="Value 3" style="connectable=0;recursiveResize=0;strokeColor=inherit;fillColor=none;align=center;whiteSpace=wrap;html=1;" vertex="1" parent="45">
                    <mxGeometry x="227" width="113" height="42" as="geometry">
                        <mxRectangle width="113" height="42" as="alternateBounds"/>
                    </mxGeometry>
                </mxCell>
                <mxCell id="37" style="shape=tableRow;horizontal=0;startSize=0;swimlaneHead=0;swimlaneBody=0;top=0;left=0;bottom=0;right=0;dropTarget=0;collapsible=0;recursiveResize=0;expand=0;fontStyle=0;fillColor=none;strokeColor=inherit;" vertex="1" parent="32">
                    <mxGeometry y="85" width="340" height="42" as="geometry"/>
                </mxCell>
                <mxCell id="38" value="Value 4" style="connectable=0;recursiveResize=0;strokeColor=inherit;fillColor=none;align=center;whiteSpace=wrap;html=1;" vertex="1" parent="37">
                    <mxGeometry width="113" height="42" as="geometry">
                        <mxRectangle width="113" height="42" as="alternateBounds"/>
                    </mxGeometry>
                </mxCell>
                <mxCell id="39" value="Value 5" style="connectable=0;recursiveResize=0;strokeColor=inherit;fillColor=none;align=center;whiteSpace=wrap;html=1;" vertex="1" parent="37">
                    <mxGeometry x="113" width="114" height="42" as="geometry">
                        <mxRectangle width="114" height="42" as="alternateBounds"/>
                    </mxGeometry>
                </mxCell>
                <mxCell id="40" value="Value 6" style="connectable=0;recursiveResize=0;strokeColor=inherit;fillColor=none;align=center;whiteSpace=wrap;html=1;" vertex="1" parent="37">
                    <mxGeometry x="227" width="113" height="42" as="geometry">
                        <mxRectangle width="113" height="42" as="alternateBounds"/>
                    </mxGeometry>
                </mxCell>
                <mxCell id="41" style="shape=tableRow;horizontal=0;startSize=0;swimlaneHead=0;swimlaneBody=0;top=0;left=0;bottom=0;right=0;dropTarget=0;collapsible=0;recursiveResize=0;expand=0;fontStyle=0;fillColor=none;strokeColor=inherit;" vertex="1" parent="32">
                    <mxGeometry y="127" width="340" height="43" as="geometry"/>
                </mxCell>
                <mxCell id="42" value="Value 7" style="connectable=0;recursiveResize=0;strokeColor=inherit;fillColor=none;align=center;whiteSpace=wrap;html=1;" vertex="1" parent="41">
                    <mxGeometry width="113" height="43" as="geometry">
                        <mxRectangle width="113" height="43" as="alternateBounds"/>
                    </mxGeometry>
                </mxCell>
                <mxCell id="43" value="Value 8" style="connectable=0;recursiveResize=0;strokeColor=inherit;fillColor=none;align=center;whiteSpace=wrap;html=1;" vertex="1" parent="41">
                    <mxGeometry x="113" width="114" height="43" as="geometry">
                        <mxRectangle width="114" height="43" as="alternateBounds"/>
                    </mxGeometry>
                </mxCell>
                <mxCell id="44" value="Value 9" style="connectable=0;recursiveResize=0;strokeColor=inherit;fillColor=none;align=center;whiteSpace=wrap;html=1;" vertex="1" parent="41">
                    <mxGeometry x="227" width="113" height="43" as="geometry">
                        <mxRectangle width="113" height="43" as="alternateBounds"/>
                    </mxGeometry>
                </mxCell>
                <mxCell id="66" value="" style="childLayout=tableLayout;recursiveResize=0;shadow=0;fillColor=none;" vertex="1" parent="83">
                    <mxGeometry x="680" width="190" height="170" as="geometry"/>
                </mxCell>
                <mxCell id="67" value="" style="shape=tableRow;horizontal=0;startSize=0;swimlaneHead=0;swimlaneBody=0;top=0;left=0;bottom=0;right=0;dropTarget=0;collapsible=0;recursiveResize=0;expand=0;fontStyle=0;fillColor=none;strokeColor=inherit;" vertex="1" parent="66">
                    <mxGeometry width="190" height="43" as="geometry"/>
                </mxCell>
                <mxCell id="68" value="Value 1" style="connectable=0;recursiveResize=0;strokeColor=inherit;fillColor=none;align=center;whiteSpace=wrap;html=1;" vertex="1" parent="67">
                    <mxGeometry width="63" height="43" as="geometry">
                        <mxRectangle width="63" height="43" as="alternateBounds"/>
                    </mxGeometry>
                </mxCell>
                <mxCell id="69" value="Value 2" style="connectable=0;recursiveResize=0;strokeColor=inherit;fillColor=none;align=center;whiteSpace=wrap;html=1;" vertex="1" parent="67">
                    <mxGeometry x="63" width="64" height="43" as="geometry">
                        <mxRectangle width="64" height="43" as="alternateBounds"/>
                    </mxGeometry>
                </mxCell>
                <mxCell id="70" value="Value 3" style="connectable=0;recursiveResize=0;strokeColor=inherit;fillColor=none;align=center;whiteSpace=wrap;html=1;" vertex="1" parent="67">
                    <mxGeometry x="127" width="63" height="43" as="geometry">
                        <mxRectangle width="63" height="43" as="alternateBounds"/>
                    </mxGeometry>
                </mxCell>
                <mxCell id="71" value="" style="shape=tableRow;horizontal=0;startSize=0;swimlaneHead=0;swimlaneBody=0;top=0;left=0;bottom=0;right=0;dropTarget=0;collapsible=0;recursiveResize=0;expand=0;fontStyle=0;fillColor=none;strokeColor=inherit;" vertex="1" parent="66">
                    <mxGeometry y="43" width="190" height="42" as="geometry"/>
                </mxCell>
                <mxCell id="72" value="Value 1" style="connectable=0;recursiveResize=0;strokeColor=inherit;fillColor=none;align=center;whiteSpace=wrap;html=1;" vertex="1" parent="71">
                    <mxGeometry width="63" height="42" as="geometry">
                        <mxRectangle width="63" height="42" as="alternateBounds"/>
                    </mxGeometry>
                </mxCell>
                <mxCell id="73" value="Value 2" style="connectable=0;recursiveResize=0;strokeColor=inherit;fillColor=none;align=center;whiteSpace=wrap;html=1;" vertex="1" parent="71">
                    <mxGeometry x="63" width="64" height="42" as="geometry">
                        <mxRectangle width="64" height="42" as="alternateBounds"/>
                    </mxGeometry>
                </mxCell>
                <mxCell id="74" value="Value 3" style="connectable=0;recursiveResize=0;strokeColor=inherit;fillColor=none;align=center;whiteSpace=wrap;html=1;" vertex="1" parent="71">
                    <mxGeometry x="127" width="63" height="42" as="geometry">
                        <mxRectangle width="63" height="42" as="alternateBounds"/>
                    </mxGeometry>
                </mxCell>
                <mxCell id="75" style="shape=tableRow;horizontal=0;startSize=0;swimlaneHead=0;swimlaneBody=0;top=0;left=0;bottom=0;right=0;dropTarget=0;collapsible=0;recursiveResize=0;expand=0;fontStyle=0;fillColor=none;strokeColor=inherit;" vertex="1" parent="66">
                    <mxGeometry y="85" width="190" height="42" as="geometry"/>
                </mxCell>
                <mxCell id="76" value="Value 4" style="connectable=0;recursiveResize=0;strokeColor=inherit;fillColor=none;align=center;whiteSpace=wrap;html=1;" vertex="1" parent="75">
                    <mxGeometry width="63" height="42" as="geometry">
                        <mxRectangle width="63" height="42" as="alternateBounds"/>
                    </mxGeometry>
                </mxCell>
                <mxCell id="77" value="Value 5" style="connectable=0;recursiveResize=0;strokeColor=inherit;fillColor=none;align=center;whiteSpace=wrap;html=1;" vertex="1" parent="75">
                    <mxGeometry x="63" width="64" height="42" as="geometry">
                        <mxRectangle width="64" height="42" as="alternateBounds"/>
                    </mxGeometry>
                </mxCell>
                <mxCell id="78" value="Value 6" style="connectable=0;recursiveResize=0;strokeColor=inherit;fillColor=none;align=center;whiteSpace=wrap;html=1;" vertex="1" parent="75">
                    <mxGeometry x="127" width="63" height="42" as="geometry">
                        <mxRectangle width="63" height="42" as="alternateBounds"/>
                    </mxGeometry>
                </mxCell>
                <mxCell id="79" style="shape=tableRow;horizontal=0;startSize=0;swimlaneHead=0;swimlaneBody=0;top=0;left=0;bottom=0;right=0;dropTarget=0;collapsible=0;recursiveResize=0;expand=0;fontStyle=0;fillColor=none;strokeColor=inherit;" vertex="1" parent="66">
                    <mxGeometry y="127" width="190" height="43" as="geometry"/>
                </mxCell>
                <mxCell id="80" value="Value 7" style="connectable=0;recursiveResize=0;strokeColor=inherit;fillColor=none;align=center;whiteSpace=wrap;html=1;" vertex="1" parent="79">
                    <mxGeometry width="63" height="43" as="geometry">
                        <mxRectangle width="63" height="43" as="alternateBounds"/>
                    </mxGeometry>
                </mxCell>
                <mxCell id="81" value="Value 8" style="connectable=0;recursiveResize=0;strokeColor=inherit;fillColor=none;align=center;whiteSpace=wrap;html=1;" vertex="1" parent="79">
                    <mxGeometry x="63" width="64" height="43" as="geometry">
                        <mxRectangle width="64" height="43" as="alternateBounds"/>
                    </mxGeometry>
                </mxCell>
                <mxCell id="82" value="Value 9" style="connectable=0;recursiveResize=0;strokeColor=inherit;fillColor=none;align=center;whiteSpace=wrap;html=1;" vertex="1" parent="79">
                    <mxGeometry x="127" width="63" height="43" as="geometry">
                        <mxRectangle width="63" height="43" as="alternateBounds"/>
                    </mxGeometry>
                </mxCell>
                <mxCell id="84" value="共 100 页" style="text;html=1;align=center;verticalAlign=middle;whiteSpace=wrap;rounded=0;" vertex="1" parent="1">
                    <mxGeometry x="110" y="399" width="60" height="30" as="geometry"/>
                </mxCell>
                <mxCell id="IVYwX4z4KSFQF_cbaDjo-93" value="" style="group" vertex="1" connectable="0" parent="1">
                    <mxGeometry x="180" y="390" width="110" height="200" as="geometry"/>
                </mxCell>
                <mxCell id="IVYwX4z4KSFQF_cbaDjo-85" value="" style="rounded=0;whiteSpace=wrap;html=1;" vertex="1" parent="IVYwX4z4KSFQF_cbaDjo-93">
                    <mxGeometry width="110" height="200" as="geometry"/>
                </mxCell>
                <mxCell id="IVYwX4z4KSFQF_cbaDjo-86" value="20 条/页&amp;nbsp; &amp;nbsp; &amp;nbsp; ▽" style="rounded=1;whiteSpace=wrap;html=1;" vertex="1" parent="IVYwX4z4KSFQF_cbaDjo-93">
                    <mxGeometry x="13.75" y="5" width="82.5" height="30" as="geometry"/>
                </mxCell>
                <mxCell id="IVYwX4z4KSFQF_cbaDjo-87" value="10" style="rounded=0;whiteSpace=wrap;html=1;" vertex="1" parent="IVYwX4z4KSFQF_cbaDjo-93">
                    <mxGeometry x="13.75" y="45" width="82.5" height="30" as="geometry"/>
                </mxCell>
                <mxCell id="IVYwX4z4KSFQF_cbaDjo-88" value="20" style="rounded=0;whiteSpace=wrap;html=1;" vertex="1" parent="IVYwX4z4KSFQF_cbaDjo-93">
                    <mxGeometry x="13.75" y="75" width="82.5" height="30" as="geometry"/>
                </mxCell>
                <mxCell id="IVYwX4z4KSFQF_cbaDjo-90" value="50" style="rounded=0;whiteSpace=wrap;html=1;" vertex="1" parent="IVYwX4z4KSFQF_cbaDjo-93">
                    <mxGeometry x="13.75" y="105" width="82.5" height="30" as="geometry"/>
                </mxCell>
                <mxCell id="IVYwX4z4KSFQF_cbaDjo-91" value="100" style="rounded=0;whiteSpace=wrap;html=1;" vertex="1" parent="IVYwX4z4KSFQF_cbaDjo-93">
                    <mxGeometry x="13.75" y="135" width="82.5" height="30" as="geometry"/>
                </mxCell>
                <mxCell id="IVYwX4z4KSFQF_cbaDjo-92" value="全部" style="rounded=0;whiteSpace=wrap;html=1;" vertex="1" parent="IVYwX4z4KSFQF_cbaDjo-93">
                    <mxGeometry x="13.75" y="165" width="82.5" height="30" as="geometry"/>
                </mxCell>
                <mxCell id="IVYwX4z4KSFQF_cbaDjo-94" value="⫷&amp;nbsp; 《&amp;nbsp; &amp;nbsp; &amp;nbsp;1、2、3、4、5&lt;span style=&quot;color: rgb(0, 0, 0);&quot;&gt;&amp;nbsp; &amp;nbsp; &amp;nbsp;》&amp;nbsp;&amp;nbsp;&lt;/span&gt;⫸" style="text;html=1;align=right;verticalAlign=middle;whiteSpace=wrap;rounded=0;" vertex="1" parent="1">
                    <mxGeometry x="670" y="384" width="190" height="30" as="geometry"/>
                </mxCell>
                <mxCell id="IVYwX4z4KSFQF_cbaDjo-96" value="" style="group" vertex="1" connectable="0" parent="1">
                    <mxGeometry x="870" y="380" width="110" height="200" as="geometry"/>
                </mxCell>
                <mxCell id="IVYwX4z4KSFQF_cbaDjo-97" value="" style="rounded=0;whiteSpace=wrap;html=1;" vertex="1" parent="IVYwX4z4KSFQF_cbaDjo-96">
                    <mxGeometry width="110" height="200" as="geometry"/>
                </mxCell>
                <mxCell id="IVYwX4z4KSFQF_cbaDjo-98" value="筛选列&amp;nbsp; &amp;nbsp; &amp;nbsp; ▽" style="rounded=1;whiteSpace=wrap;html=1;" vertex="1" parent="IVYwX4z4KSFQF_cbaDjo-96">
                    <mxGeometry x="13.75" y="5" width="82.5" height="30" as="geometry"/>
                </mxCell>
                <mxCell id="IVYwX4z4KSFQF_cbaDjo-99" value="列 1&amp;nbsp;" style="rounded=0;whiteSpace=wrap;html=1;" vertex="1" parent="IVYwX4z4KSFQF_cbaDjo-96">
                    <mxGeometry x="13.75" y="45" width="82.5" height="30" as="geometry"/>
                </mxCell>
                <mxCell id="IVYwX4z4KSFQF_cbaDjo-100" value="列 2" style="rounded=0;whiteSpace=wrap;html=1;" vertex="1" parent="IVYwX4z4KSFQF_cbaDjo-96">
                    <mxGeometry x="13.75" y="75" width="82.5" height="30" as="geometry"/>
                </mxCell>
                <mxCell id="IVYwX4z4KSFQF_cbaDjo-101" value="列 3" style="rounded=0;whiteSpace=wrap;html=1;" vertex="1" parent="IVYwX4z4KSFQF_cbaDjo-96">
                    <mxGeometry x="13.75" y="105" width="82.5" height="30" as="geometry"/>
                </mxCell>
                <mxCell id="IVYwX4z4KSFQF_cbaDjo-102" value="列 4" style="rounded=0;whiteSpace=wrap;html=1;" vertex="1" parent="IVYwX4z4KSFQF_cbaDjo-96">
                    <mxGeometry x="13.75" y="135" width="82.5" height="30" as="geometry"/>
                </mxCell>
                <mxCell id="IVYwX4z4KSFQF_cbaDjo-103" value="列 5" style="rounded=0;whiteSpace=wrap;html=1;" vertex="1" parent="IVYwX4z4KSFQF_cbaDjo-96">
                    <mxGeometry x="13.75" y="165" width="82.5" height="30" as="geometry"/>
                </mxCell>
            </root>
        </mxGraphModel>
    </diagram>
    <diagram id="lrQFS2Q0yg7-O7oLuVEM" name="第 2 页">
        <mxGraphModel dx="1107" dy="677" grid="1" gridSize="10" guides="1" tooltips="1" connect="1" arrows="1" fold="1" page="1" pageScale="1" pageWidth="1169" pageHeight="827" math="0" shadow="0">
            <root>
                <mxCell id="0"/>
                <mxCell id="1" parent="0"/>
            </root>
        </mxGraphModel>
    </diagram>
    <diagram id="VQ-6KZesTyFDGwN9oVJI" name="第 3 页">
        <mxGraphModel dx="1107" dy="677" grid="1" gridSize="10" guides="1" tooltips="1" connect="1" arrows="1" fold="1" page="1" pageScale="1" pageWidth="1169" pageHeight="827" math="0" shadow="0">
            <root>
                <mxCell id="0"/>
                <mxCell id="1" parent="0"/>
            </root>
        </mxGraphModel>
    </diagram>
    <diagram id="ar1l-684JFhr8Mkbxszr" name="第 4 页">
        <mxGraphModel dx="1107" dy="677" grid="1" gridSize="10" guides="1" tooltips="1" connect="1" arrows="1" fold="1" page="1" pageScale="1" pageWidth="1169" pageHeight="827" math="0" shadow="0">
            <root>
                <mxCell id="0"/>
                <mxCell id="1" parent="0"/>
            </root>
        </mxGraphModel>
    </diagram>
</mxfile>